<svg height="48" viewBox="0 0 48 48" width="48" xmlns="http://www.w3.org/2000/svg" xmlns:xlink="http://www.w3.org/1999/xlink"><linearGradient id="a" gradientUnits="userSpaceOnUse" x1="2" x2="41.929472" y1="24" y2="42.483432"><stop offset="0" stop-color="#4568dc"/><stop offset=".98695652174" stop-color="#b06ab3"/></linearGradient><path d="m42 24.14c0-1.104.896-2 2-2 1.104 0 2 .896 2 2v14.86c0 3.863-3.137 7-7 7h-30c-3.863 0-7-3.137-7-7v-30c0-3.863 3.137-7 7-7h30c3.863 0 7 3.137 7 7v1.54c0 1.104-.68 2.583-1.519 3.301l-19.132 16.398c-.839.718-2.123.639-2.868-.176l-7.961-8.713c-.745-.817-.687-2.085.13-2.83.817-.745 2.085-.687 2.83.13l6.016 6.591c.372.408 1.014.447 1.433.088l16.312-13.978c.419-.359.759-1.099.759-1.651v-.7c0-1.656-1.344-3-3-3h-28c-2.76 0-5 2.24-5 5v26c0 2.76 2.24 5 5 5h26c2.76 0 5-2.24 5-5z" fill="url(#a)"/></svg>